<?xml version="1.0" encoding="UTF-8"?>
<svg id="Layer_2" data-name="Layer 2" xmlns="http://www.w3.org/2000/svg" viewBox="0 0 15.99 11.93">
  <defs>
    <style>
      .cls-1 {
        fill: #0D6E6E;
        stroke-width: 0px;
      }
       @media (prefers-color-scheme: dark) {
        .cls-1 {fill: #FF7F50}
      }
    </style>
  </defs>
  <g id="Layer_1-2" data-name="Layer 1">
    <g>
      <path class="cls-1" d="m15.99,11.55s0,.09-.03.16c-.05.11-.14.19-.25.22h-6.04c-.21,0-.38-.17-.38-.38,0-.2.15-.36.34-.38h5.08c.08,0,.14-.04.17-.11,0,0,0,0,0-.01,0-.02.01-.05.01-.07,0-.02,0-.05-.01-.07,0,0,0-.01-.01-.02L10.8,1.8c-.03-.08-.11-.13-.2-.13s-.16.05-.19.12c0,0-.01.02-.01.03-1.16,2.38-1.79,4.15-2.16,5.42,0,0-.6,2.04-1.64,3.08-.16.15-.69.61-1.12.87-.06.03-.12.07-.18.1-.78.42-1.67.66-2.61.66H.38C.17,11.93,0,11.76,0,11.55,0,11.45.04,11.36.11,11.29c.07-.07.17-.12.27-.12h2.27c1.27,0,2.42-.5,3.28-1.31.88-.83,1.44-2,1.47-3.3h0s0-.1,0-.14C7.41,3.84,5.35,1.74,2.78,1.68c-.04,0-.08,0-.12,0s-.08,0-.12,0H.38c-.11,0-.21-.04-.28-.12-.07-.07-.1-.16-.1-.26,0-.21.17-.38.38-.38h2.45c.97.02,1.87.3,2.65.76,1.13.66,2,1.72,2.43,2.98,0,0,0,.02,0,.02.03.06.09.11.17.11s.13-.04.16-.1c0,0,0,0,0-.01h0s.2-.47.2-.47l1.71-3.82.05-.12s0,0,0-.01l.02-.06c.07-.12.2-.21.35-.21s.28.08.35.21c0,0,0,0,0,0l.02.06s0,0,0,.01l.05.11h0s4.81,10.76,4.81,10.76v.02s.08.15.08.15l.02.04s.05.1.05.19h0Z"/>
      <path class="cls-1" d="m.78,4.21v4.22c0,.21-.16.37-.36.39h-.02s-.03,0-.04,0C.15,8.8,0,8.64,0,8.43v-4.22C0,4,.17,3.83.39,3.83s.39.17.39.39Z"/>
    </g>
  </g>
</svg>