<?xml version="1.0" encoding="UTF-8"?>
<svg id="Layer_2" data-name="Layer 2" xmlns="http://www.w3.org/2000/svg" viewBox="0 0 199.8 200.07">
  <defs>
    <style>
      .cls-1 {
        fill: rgba(0, 0, 0, 0);
      }

      .cls-2 {
        fill: #2C2C2C;
      }
      @media (prefers-color-scheme: dark) {
        .cls-2 {fill: #E0E0E0}
      }
    </style>
  </defs>
  <g id="Logo_curvo" data-name="Logo Daniel">
    <rect class="cls-1" x=".12" y=".12" width="199.55" height="199.82"/>
    <g>
      <path class="cls-2" d="m155.03,138.61c0,.17-.02.62-.23,1.11-.32.73-.96,1.3-1.74,1.51h-41.69c-1.44,0-2.62-1.18-2.62-2.62,0-1.36,1.04-2.47,2.35-2.61h35.06c.52,0,.97-.3,1.17-.74.02-.02.03-.05.04-.07.06-.16.1-.32.1-.49,0-.16-.03-.32-.08-.46-.02-.05-.04-.1-.07-.14l-28.08-62.82c-.22-.53-.75-.91-1.36-.91s-1.09.34-1.32.82c-.04.06-.07.12-.08.18-7.99,16.46-12.33,28.66-14.89,37.4,0,0-4.14,14.09-11.33,21.24-1.08,1.07-4.73,4.2-7.72,5.99-.4.24-.81.47-1.22.69-5.36,2.9-11.5,4.54-18.02,4.54h-15.91c-1.44,0-2.62-1.18-2.62-2.62,0-.7.27-1.33.73-1.8.47-.5,1.15-.81,1.89-.81h15.68c8.75,0,16.71-3.43,22.6-9.03,6.05-5.76,9.91-13.82,10.17-22.77h.01c.01-.34.01-.67.01-1,0-17.83-14.22-32.33-31.94-32.78-.29-.01-.57-.01-.85-.01s-.56,0-.85.01h-14.83c-.74,0-1.42-.31-1.9-.81-.45-.47-.72-1.1-.72-1.8,0-1.45,1.18-2.62,2.62-2.62h16.89c6.66.17,12.9,2.06,18.28,5.23,7.8,4.59,13.82,11.88,16.76,20.59.01.06.03.11.06.17.19.44.64.75,1.15.75s.93-.29,1.12-.71c.02-.02.03-.05.04-.07l.04-.1,1.4-3.13,11.77-26.35.37-.81s.02-.06.04-.09l.17-.39c.46-.85,1.36-1.43,2.39-1.43s1.94.58,2.4,1.43c.01,0,.01.01.01.02l.17.39s.02.05.03.07l.36.79.02.03,33.2,74.28.06.14.46,1.03.13.29c.12.22.32.68.32,1.29Z"/>
      <path class="cls-2" d="m50.12,87.96v29.14c0,1.43-1.11,2.59-2.5,2.68h-.17c-.09,0-.18,0-.27-.01-1.36-.14-2.41-1.28-2.41-2.67v-29.14c0-1.48,1.2-2.67,2.68-2.67s2.67,1.19,2.67,2.67Z"/>
    </g>
  </g>
</svg>